<?xml version="1.0" standalone="no"?>
<!DOCTYPE svg PUBLIC "-//W3C//DTD SVG 20010904//EN"
 "http://www.w3.org/TR/2001/REC-SVG-20010904/DTD/svg10.dtd">
<svg version="1.0" xmlns="http://www.w3.org/2000/svg"
 width="554.000000pt" height="554.000000pt" viewBox="0 0 554.000000 554.000000"
 preserveAspectRatio="xMidYMid meet">

<g transform="translate(0.000000,554.000000) scale(0.100000,-0.100000)"
fill="#000000" stroke="none">
<path d="M1604 3865 c-69 -35 -64 55 -64 -1242 0 -907 3 -1173 13 -1192 6 -13
25 -34 40 -45 28 -21 37 -21 595 -24 525 -2 570 -1 602 15 43 22 70 73 70 132
l0 44 -79 -7 -78 -6 -6 52 c-8 67 -47 124 -107 156 -37 19 -56 23 -107 20
-106 -7 -179 -77 -191 -185 l-5 -45 -45 6 c-25 3 -70 7 -101 7 -31 1 -43 4
-28 6 21 3 27 9 23 20 -3 8 -6 17 -6 19 0 2 -112 4 -249 4 -214 0 -252 2 -265
16 -14 14 -16 124 -16 1068 0 805 3 1055 12 1064 9 9 153 12 584 12 507 0 574
-2 588 -16 14 -14 16 -83 16 -610 l0 -595 28 3 27 3 0 632 0 633 -33 32 -32
33 -578 2 c-499 2 -581 1 -608 -12z m1014 -58 c2 -12 -3 -17 -17 -17 -12 0
-21 6 -21 13 0 31 32 34 38 4z m-51 -2137 c40 -24 54 -50 55 -102 1 -49 -24
-86 -76 -112 -50 -24 -99 -15 -143 29 -27 27 -33 40 -33 77 1 23 6 53 14 66
32 59 122 80 183 42z m-504 -144 c-10 -13 -20 -22 -22 -20 -4 4 29 44 36 44 2
0 -4 -11 -14 -24z m260 -108 c-2 -5 -58 -8 -123 -8 -65 0 -121 3 -123 8 -3 4
53 7 123 7 70 0 126 -3 123 -7z"/>
<path d="M2463 1640 c-80 -32 -55 -150 32 -150 89 0 112 119 29 150 -29 12
-32 12 -61 0z m84 -49 c27 -56 -47 -109 -91 -65 -19 19 -21 65 -4 82 22 22 81
10 95 -17z"/>
<path d="M2125 3187 c-94 -31 -149 -79 -187 -162 -63 -137 9 -411 161 -612 82
-109 99 -114 161 -45 167 186 267 508 203 653 -58 132 -212 207 -338 166z
m161 -112 c123 -61 148 -214 50 -311 -66 -67 -140 -80 -222 -39 -190 95 -127
369 87 374 19 1 57 -10 85 -24z"/>
<path d="M2067 2275 c-49 -17 -54 -22 -41 -43 15 -24 78 -40 154 -41 65 0 65
0 102 43 31 36 35 45 22 50 -29 11 -199 5 -237 -9z"/>
<path d="M2110 1845 c0 -71 3 -74 54 -50 35 17 66 61 66 94 0 19 -6 21 -60 21
l-60 0 0 -65z"/>
<path d="M3725 1756 c-73 -33 -119 -103 -119 -186 -1 -177 205 -271 335 -153
105 95 84 267 -41 331 -51 25 -128 29 -175 8z m153 -86 c19 -12 40 -37 49 -57
39 -94 -62 -196 -162 -163 -99 33 -117 163 -29 221 38 25 100 24 142 -1z"/>
<path d="M3770 1637 c-76 -38 -48 -146 38 -147 41 0 82 38 82 75 0 31 -49 85
-77 85 -10 0 -29 -6 -43 -13z m84 -39 c21 -30 20 -44 -4 -68 -24 -24 -57 -26
-82 -3 -20 18 -24 63 -6 81 21 21 75 15 92 -10z"/>
</g>
</svg>
